P3
64 64
255
60 85 81 60 85 81 60 85 81 60 85 81 60 85 81 60 85 81 60 85 81 60 85 81 
60 85 81 60 85 81 60 85 81 60 85 81 27 27 41 27 27 41 27 27 41 27 27 41 
27 27 41 27 27 41 27 27 41 27 27 41 27 27 41 27 27 41 27 27 41 27 27 41 
73 104 98 73 104 98 73 104 98 73 104 98 73 104 98 73 104 98 73 104 98 
73 104 98 73 104 98 73 104 98 73 104 98 73 104 98 147 173 136 147 173 136 
147 173 136 147 173 136 147 173 136 147 173 136 147 173 136 147 173 136 
147 173 136 147 173 136 147 173 136 147 173 136 172 204 231 172 204 231 
172 204 231 172 204 231 172 204 231 172 204 231 172 204 231 172 204 231 
172 204 231 172 204 231 172 204 231 172 204 231 0 0 0 0 0 0 0 0 0 0 0 0 60 85 81 
60 85 81 60 85 81 60 85 81 60 85 81 60 85 81 60 85 81 60 85 81 60 85 81 
60 85 81 60 85 81 60 85 81 27 27 41 27 27 41 27 27 41 27 27 41 27 27 41 
27 27 41 27 27 41 27 27 41 27 27 41 27 27 41 27 27 41 27 27 41 73 104 98 
73 104 98 73 104 98 73 104 98 73 104 98 73 104 98 73 104 98 73 104 98 
73 104 98 73 104 98 73 104 98 73 104 98 147 173 136 147 173 136 147 173 136 
147 173 136 147 173 136 147 173 136 147 173 136 147 173 136 147 173 136 
147 173 136 147 173 136 147 173 136 172 204 231 172 204 231 172 204 231 
172 204 231 172 204 231 172 204 231 172 204 231 172 204 231 172 204 231 
172 204 231 172 204 231 172 204 231 0 0 0 0 0 0 0 0 0 0 0 0 60 85 81 60 85 81 
60 85 81 60 85 81 60 85 81 60 85 81 60 85 81 60 85 81 60 85 81 60 85 81 
60 85 81 60 85 81 27 27 41 27 27 41 27 27 41 27 27 41 27 27 41 27 27 41 
27 27 41 27 27 41 27 27 41 27 27 41 27 27 41 27 27 41 73 104 98 73 104 98 
73 104 98 73 104 98 73 104 98 73 104 98 73 104 98 73 104 98 73 104 98 
73 104 98 73 104 98 73 104 98 147 173 136 147 173 136 147 173 136 147 173 136 
147 173 136 147 173 136 147 173 136 147 173 136 147 173 136 147 173 136 
147 173 136 147 173 136 172 204 231 172 204 231 172 204 231 172 204 231 
172 204 231 172 204 231 172 204 231 172 204 231 172 204 231 172 204 231 
172 204 231 172 204 231 0 0 0 0 0 0 0 0 0 0 0 0 60 85 81 60 85 81 60 85 81 
60 85 81 60 85 81 60 85 81 60 85 81 60 85 81 60 85 81 60 85 81 60 85 81 
60 85 81 27 27 41 27 27 41 27 27 41 27 27 41 27 27 41 27 27 41 27 27 41 
27 27 41 27 27 41 27 27 41 27 27 41 27 27 41 73 104 98 73 104 98 73 104 98 
73 104 98 73 104 98 73 104 98 73 104 98 73 104 98 73 104 98 73 104 98 
73 104 98 73 104 98 147 173 136 147 173 136 147 173 136 147 173 136 
147 173 136 147 173 136 147 173 136 147 173 136 147 173 136 147 173 136 
147 173 136 147 173 136 172 204 231 172 204 231 172 204 231 172 204 231 
172 204 231 172 204 231 172 204 231 172 204 231 172 204 231 172 204 231 
172 204 231 172 204 231 0 0 0 0 0 0 0 0 0 0 0 0 60 85 81 60 85 81 60 85 81 
60 85 81 60 85 81 60 85 81 60 85 81 60 85 81 60 85 81 60 85 81 60 85 81 
60 85 81 27 27 41 27 27 41 27 27 41 27 27 41 27 27 41 27 27 41 27 27 41 
27 27 41 27 27 41 27 27 41 27 27 41 27 27 41 73 104 98 73 104 98 73 104 98 
73 104 98 73 104 98 73 104 98 73 104 98 73 104 98 73 104 98 73 104 98 
73 104 98 73 104 98 147 173 136 147 173 136 147 173 136 147 173 136 
147 173 136 147 173 136 147 173 136 147 173 136 147 173 136 147 173 136 
147 173 136 147 173 136 172 204 231 172 204 231 172 204 231 172 204 231 
172 204 231 172 204 231 172 204 231 172 204 231 172 204 231 172 204 231 
172 204 231 172 204 231 0 0 0 0 0 0 0 0 0 0 0 0 60 85 81 60 85 81 60 85 81 
60 85 81 60 85 81 60 85 81 60 85 81 60 85 81 60 85 81 60 85 81 60 85 81 
60 85 81 27 27 41 27 27 41 27 27 41 27 27 41 27 27 41 27 27 41 27 27 41 
27 27 41 27 27 41 27 27 41 27 27 41 27 27 41 73 104 98 73 104 98 73 104 98 
73 104 98 73 104 98 73 104 98 73 104 98 73 104 98 73 104 98 73 104 98 
73 104 98 73 104 98 147 173 136 147 173 136 147 173 136 147 173 136 
147 173 136 147 173 136 147 173 136 147 173 136 147 173 136 147 173 136 
147 173 136 147 173 136 172 204 231 172 204 231 172 204 231 172 204 231 
172 204 231 172 204 231 172 204 231 172 204 231 172 204 231 172 204 231 
172 204 231 172 204 231 0 0 0 0 0 0 0 0 0 0 0 0 60 85 81 60 85 81 60 85 81 
60 85 81 60 85 81 60 85 81 60 85 81 60 85 81 60 85 81 60 85 81 60 85 81 
60 85 81 27 27 41 27 27 41 27 27 41 27 27 41 27 27 41 27 27 41 27 27 41 
27 27 41 27 27 41 27 27 41 27 27 41 27 27 41 73 104 98 73 104 98 73 104 98 
73 104 98 73 104 98 73 104 98 73 104 98 73 104 98 73 104 98 73 104 98 
73 104 98 73 104 98 147 173 136 147 173 136 147 173 136 147 173 136 
147 173 136 147 173 136 147 173 136 147 173 136 147 173 136 147 173 136 
147 173 136 147 173 136 172 204 231 172 204 231 172 204 231 172 204 231 
172 204 231 172 204 231 172 204 231 172 204 231 172 204 231 172 204 231 
172 204 231 172 204 231 0 0 0 0 0 0 0 0 0 0 0 0 60 85 81 60 85 81 60 85 81 
60 85 81 60 85 81 60 85 81 60 85 81 60 85 81 60 85 81 60 85 81 60 85 81 
60 85 81 27 27 41 27 27 41 27 27 41 27 27 41 27 27 41 27 27 41 27 27 41 
27 27 41 27 27 41 27 27 41 27 27 41 27 27 41 73 104 98 73 104 98 73 104 98 
73 104 98 73 104 98 73 104 98 73 104 98 73 104 98 73 104 98 73 104 98 
73 104 98 73 104 98 147 173 136 147 173 136 147 173 136 147 173 136 
147 173 136 147 173 136 147 173 136 147 173 136 147 173 136 147 173 136 
147 173 136 147 173 136 172 204 231 172 204 231 172 204 231 172 204 231 
172 204 231 172 204 231 172 204 231 172 204 231 172 204 231 172 204 231 
172 204 231 172 204 231 0 0 0 0 0 0 0 0 0 0 0 0 60 85 81 60 85 81 60 85 81 
60 85 81 60 85 81 60 85 81 60 85 81 60 85 81 60 85 81 60 85 81 60 85 81 
60 85 81 27 27 41 27 27 41 27 27 41 27 27 41 27 27 41 27 27 41 27 27 41 
27 27 41 27 27 41 27 27 41 27 27 41 27 27 41 73 104 98 73 104 98 73 104 98 
73 104 98 73 104 98 73 104 98 73 104 98 73 104 98 73 104 98 73 104 98 
73 104 98 73 104 98 147 173 136 147 173 136 147 173 136 147 173 136 
147 173 136 147 173 136 147 173 136 147 173 136 147 173 136 147 173 136 
147 173 136 147 173 136 172 204 231 172 204 231 172 204 231 172 204 231 
172 204 231 172 204 231 172 204 231 172 204 231 172 204 231 172 204 231 
172 204 231 172 204 231 0 0 0 0 0 0 0 0 0 0 0 0 60 85 81 60 85 81 60 85 81 
60 85 81 60 85 81 60 85 81 60 85 81 60 85 81 60 85 81 60 85 81 60 85 81 
60 85 81 27 27 41 27 27 41 27 27 41 27 27 41 27 27 41 27 27 41 27 27 41 
27 27 41 27 27 41 27 27 41 27 27 41 27 27 41 73 104 98 73 104 98 73 104 98 
73 104 98 73 104 98 73 104 98 73 104 98 73 104 98 73 104 98 73 104 98 
73 104 98 73 104 98 147 173 136 147 173 136 147 173 136 147 173 136 
147 173 136 147 173 136 147 173 136 147 173 136 147 173 136 147 173 136 
147 173 136 147 173 136 172 204 231 172 204 231 172 204 231 172 204 231 
172 204 231 172 204 231 172 204 231 172 204 231 172 204 231 172 204 231 
172 204 231 172 204 231 0 0 0 0 0 0 0 0 0 0 0 0 60 85 81 60 85 81 60 85 81 
60 85 81 60 85 81 60 85 81 60 85 81 60 85 81 60 85 81 60 85 81 60 85 81 
60 85 81 27 27 41 27 27 41 27 27 41 27 27 41 27 27 41 27 27 41 27 27 41 
27 27 41 27 27 41 27 27 41 27 27 41 27 27 41 73 104 98 73 104 98 73 104 98 
73 104 98 73 104 98 73 104 98 73 104 98 73 104 98 73 104 98 73 104 98 
73 104 98 73 104 98 147 173 136 147 173 136 147 173 136 147 173 136 
147 173 136 147 173 136 147 173 136 147 173 136 147 173 136 147 173 136 
147 173 136 147 173 136 172 204 231 172 204 231 172 204 231 172 204 231 
172 204 231 172 204 231 172 204 231 172 204 231 172 204 231 172 204 231 
172 204 231 172 204 231 0 0 0 0 0 0 0 0 0 0 0 0 60 85 81 60 85 81 60 85 81 
60 85 81 60 85 81 60 85 81 60 85 81 60 85 81 60 85 81 60 85 81 60 85 81 
60 85 81 27 27 41 27 27 41 27 27 41 27 27 41 27 27 41 27 27 41 27 27 41 
27 27 41 27 27 41 27 27 41 27 27 41 27 27 41 73 104 98 73 104 98 73 104 98 
73 104 98 73 104 98 73 104 98 73 104 98 73 104 98 73 104 98 73 104 98 
73 104 98 73 104 98 147 173 136 147 173 136 147 173 136 147 173 136 
147 173 136 147 173 136 147 173 136 147 173 136 147 173 136 147 173 136 
147 173 136 147 173 136 172 204 231 172 204 231 172 204 231 172 204 231 
172 204 231 172 204 231 172 204 231 172 204 231 172 204 231 172 204 231 
172 204 231 172 204 231 0 0 0 0 0 0 0 0 0 0 0 0 90 134 111 90 134 111 
90 134 111 90 134 111 90 134 111 90 134 111 90 134 111 90 134 111 90 134 111 
90 134 111 90 134 111 90 134 111 44 63 60 44 63 60 44 63 60 44 63 60 44 63 60 
44 63 60 44 63 60 44 63 60 44 63 60 44 63 60 44 63 60 44 63 60 87 56 66 
87 56 66 87 56 66 87 56 66 87 56 66 87 56 66 87 56 66 87 56 66 87 56 66 
87 56 66 87 56 66 87 56 66 121 78 92 121 78 92 121 78 92 121 78 92 121 78 92 
121 78 92 121 78 92 121 78 92 121 78 92 121 78 92 121 78 92 121 78 92 
82 116 84 82 116 84 82 116 84 82 116 84 82 116 84 82 116 84 82 116 84 
82 116 84 82 116 84 82 116 84 82 116 84 82 116 84 0 0 0 0 0 0 0 0 0 0 0 0 
90 134 111 90 134 111 90 134 111 90 134 111 90 134 111 90 134 111 90 134 111 
90 134 111 90 134 111 90 134 111 90 134 111 90 134 111 44 63 60 44 63 60 
44 63 60 44 63 60 44 63 60 44 63 60 44 63 60 44 63 60 44 63 60 44 63 60 
44 63 60 44 63 60 87 56 66 87 56 66 87 56 66 87 56 66 87 56 66 87 56 66 
87 56 66 87 56 66 87 56 66 87 56 66 87 56 66 87 56 66 121 78 92 121 78 92 
121 78 92 121 78 92 121 78 92 121 78 92 121 78 92 121 78 92 121 78 92 
121 78 92 121 78 92 121 78 92 82 116 84 82 116 84 82 116 84 82 116 84 
82 116 84 82 116 84 82 116 84 82 116 84 82 116 84 82 116 84 82 116 84 
82 116 84 0 0 0 0 0 0 0 0 0 0 0 0 90 134 111 90 134 111 90 134 111 90 134 111 
90 134 111 90 134 111 90 134 111 90 134 111 90 134 111 90 134 111 90 134 111 
90 134 111 44 63 60 44 63 60 44 63 60 44 63 60 44 63 60 44 63 60 44 63 60 
44 63 60 44 63 60 44 63 60 44 63 60 44 63 60 87 56 66 87 56 66 87 56 66 
87 56 66 87 56 66 87 56 66 87 56 66 87 56 66 87 56 66 87 56 66 87 56 66 
87 56 66 121 78 92 121 78 92 121 78 92 121 78 92 121 78 92 121 78 92 121 78 92 
121 78 92 121 78 92 121 78 92 121 78 92 121 78 92 82 116 84 82 116 84 
82 116 84 82 116 84 82 116 84 82 116 84 82 116 84 82 116 84 82 116 84 
82 116 84 82 116 84 82 116 84 0 0 0 0 0 0 0 0 0 0 0 0 90 134 111 90 134 111 
90 134 111 90 134 111 90 134 111 90 134 111 90 134 111 90 134 111 90 134 111 
90 134 111 90 134 111 90 134 111 44 63 60 44 63 60 44 63 60 44 63 60 44 63 60 
44 63 60 44 63 60 44 63 60 44 63 60 44 63 60 44 63 60 44 63 60 87 56 66 
87 56 66 87 56 66 87 56 66 87 56 66 87 56 66 87 56 66 87 56 66 87 56 66 
87 56 66 87 56 66 87 56 66 121 78 92 121 78 92 121 78 92 121 78 92 121 78 92 
121 78 92 121 78 92 121 78 92 121 78 92 121 78 92 121 78 92 121 78 92 
82 116 84 82 116 84 82 116 84 82 116 84 82 116 84 82 116 84 82 116 84 
82 116 84 82 116 84 82 116 84 82 116 84 82 116 84 0 0 0 0 0 0 0 0 0 0 0 0 
90 134 111 90 134 111 90 134 111 90 134 111 90 134 111 90 134 111 90 134 111 
90 134 111 90 134 111 90 134 111 90 134 111 90 134 111 44 63 60 44 63 60 
44 63 60 44 63 60 44 63 60 44 63 60 44 63 60 44 63 60 44 63 60 44 63 60 
44 63 60 44 63 60 87 56 66 87 56 66 87 56 66 87 56 66 87 56 66 87 56 66 
87 56 66 87 56 66 87 56 66 87 56 66 87 56 66 87 56 66 121 78 92 121 78 92 
121 78 92 121 78 92 121 78 92 121 78 92 121 78 92 121 78 92 121 78 92 
121 78 92 121 78 92 121 78 92 82 116 84 82 116 84 82 116 84 82 116 84 
82 116 84 82 116 84 82 116 84 82 116 84 82 116 84 82 116 84 82 116 84 
82 116 84 0 0 0 0 0 0 0 0 0 0 0 0 90 134 111 90 134 111 90 134 111 90 134 111 
90 134 111 90 134 111 90 134 111 90 134 111 90 134 111 90 134 111 90 134 111 
90 134 111 44 63 60 44 63 60 44 63 60 44 63 60 44 63 60 44 63 60 44 63 60 
44 63 60 44 63 60 44 63 60 44 63 60 44 63 60 87 56 66 87 56 66 87 56 66 
87 56 66 87 56 66 87 56 66 87 56 66 87 56 66 87 56 66 87 56 66 87 56 66 
87 56 66 121 78 92 121 78 92 121 78 92 121 78 92 121 78 92 121 78 92 121 78 92 
121 78 92 121 78 92 121 78 92 121 78 92 121 78 92 82 116 84 82 116 84 
82 116 84 82 116 84 82 116 84 82 116 84 82 116 84 82 116 84 82 116 84 
82 116 84 82 116 84 82 116 84 0 0 0 0 0 0 0 0 0 0 0 0 90 134 111 90 134 111 
90 134 111 90 134 111 90 134 111 90 134 111 90 134 111 90 134 111 90 134 111 
90 134 111 90 134 111 90 134 111 44 63 60 44 63 60 44 63 60 44 63 60 44 63 60 
44 63 60 44 63 60 44 63 60 44 63 60 44 63 60 44 63 60 44 63 60 87 56 66 
87 56 66 87 56 66 87 56 66 87 56 66 87 56 66 87 56 66 87 56 66 87 56 66 
87 56 66 87 56 66 87 56 66 121 78 92 121 78 92 121 78 92 121 78 92 121 78 92 
121 78 92 121 78 92 121 78 92 121 78 92 121 78 92 121 78 92 121 78 92 
82 116 84 82 116 84 82 116 84 82 116 84 82 116 84 82 116 84 82 116 84 
82 116 84 82 116 84 82 116 84 82 116 84 82 116 84 0 0 0 0 0 0 0 0 0 0 0 0 
90 134 111 90 134 111 90 134 111 90 134 111 90 134 111 90 134 111 90 134 111 
90 134 111 90 134 111 90 134 111 90 134 111 90 134 111 44 63 60 44 63 60 
44 63 60 44 63 60 44 63 60 44 63 60 44 63 60 44 63 60 44 63 60 44 63 60 
44 63 60 44 63 60 87 56 66 87 56 66 87 56 66 87 56 66 87 56 66 87 56 66 
87 56 66 87 56 66 87 56 66 87 56 66 87 56 66 87 56 66 121 78 92 121 78 92 
121 78 92 121 78 92 121 78 92 121 78 92 121 78 92 121 78 92 121 78 92 
121 78 92 121 78 92 121 78 92 82 116 84 82 116 84 82 116 84 82 116 84 
82 116 84 82 116 84 82 116 84 82 116 84 82 116 84 82 116 84 82 116 84 
82 116 84 0 0 0 0 0 0 0 0 0 0 0 0 90 134 111 90 134 111 90 134 111 90 134 111 
90 134 111 90 134 111 90 134 111 90 134 111 90 134 111 90 134 111 90 134 111 
90 134 111 44 63 60 44 63 60 44 63 60 44 63 60 44 63 60 44 63 60 44 63 60 
44 63 60 44 63 60 44 63 60 44 63 60 44 63 60 87 56 66 87 56 66 87 56 66 
87 56 66 87 56 66 87 56 66 87 56 66 87 56 66 87 56 66 87 56 66 87 56 66 
87 56 66 121 78 92 121 78 92 121 78 92 121 78 92 121 78 92 121 78 92 121 78 92 
121 78 92 121 78 92 121 78 92 121 78 92 121 78 92 82 116 84 82 116 84 
82 116 84 82 116 84 82 116 84 82 116 84 82 116 84 82 116 84 82 116 84 
82 116 84 82 116 84 82 116 84 0 0 0 0 0 0 0 0 0 0 0 0 90 134 111 90 134 111 
90 134 111 90 134 111 90 134 111 90 134 111 90 134 111 90 134 111 90 134 111 
90 134 111 90 134 111 90 134 111 44 63 60 44 63 60 44 63 60 44 63 60 44 63 60 
44 63 60 44 63 60 44 63 60 44 63 60 44 63 60 44 63 60 44 63 60 87 56 66 
87 56 66 87 56 66 87 56 66 87 56 66 87 56 66 87 56 66 87 56 66 87 56 66 
87 56 66 87 56 66 87 56 66 121 78 92 121 78 92 121 78 92 121 78 92 121 78 92 
121 78 92 121 78 92 121 78 92 121 78 92 121 78 92 121 78 92 121 78 92 
82 116 84 82 116 84 82 116 84 82 116 84 82 116 84 82 116 84 82 116 84 
82 116 84 82 116 84 82 116 84 82 116 84 82 116 84 0 0 0 0 0 0 0 0 0 0 0 0 
90 134 111 90 134 111 90 134 111 90 134 111 90 134 111 90 134 111 90 134 111 
90 134 111 90 134 111 90 134 111 90 134 111 90 134 111 44 63 60 44 63 60 
44 63 60 44 63 60 44 63 60 44 63 60 44 63 60 44 63 60 44 63 60 44 63 60 
44 63 60 44 63 60 87 56 66 87 56 66 87 56 66 87 56 66 87 56 66 87 56 66 
87 56 66 87 56 66 87 56 66 87 56 66 87 56 66 87 56 66 121 78 92 121 78 92 
121 78 92 121 78 92 121 78 92 121 78 92 121 78 92 121 78 92 121 78 92 
121 78 92 121 78 92 121 78 92 82 116 84 82 116 84 82 116 84 82 116 84 
82 116 84 82 116 84 82 116 84 82 116 84 82 116 84 82 116 84 82 116 84 
82 116 84 0 0 0 0 0 0 0 0 0 0 0 0 90 134 111 90 134 111 90 134 111 90 134 111 
90 134 111 90 134 111 90 134 111 90 134 111 90 134 111 90 134 111 90 134 111 
90 134 111 44 63 60 44 63 60 44 63 60 44 63 60 44 63 60 44 63 60 44 63 60 
44 63 60 44 63 60 44 63 60 44 63 60 44 63 60 87 56 66 87 56 66 87 56 66 
87 56 66 87 56 66 87 56 66 87 56 66 87 56 66 87 56 66 87 56 66 87 56 66 
87 56 66 121 78 92 121 78 92 121 78 92 121 78 92 121 78 92 121 78 92 121 78 92 
121 78 92 121 78 92 121 78 92 121 78 92 121 78 92 82 116 84 82 116 84 
82 116 84 82 116 84 82 116 84 82 116 84 82 116 84 82 116 84 82 116 84 
82 116 84 82 116 84 82 116 84 0 0 0 0 0 0 0 0 0 0 0 0 45 65 61 45 65 61 
45 65 61 45 65 61 45 65 61 45 65 61 45 65 61 45 65 61 45 65 61 45 65 61 
45 65 61 45 65 61 68 97 70 68 97 70 68 97 70 68 97 70 68 97 70 68 97 70 
68 97 70 68 97 70 68 97 70 68 97 70 68 97 70 68 97 70 0 0 0 0 0 0 0 0 0 0 0 0 
0 0 0 0 0 0 0 0 0 0 0 0 0 0 0 0 0 0 0 0 0 0 0 0 0 0 0 0 0 0 0 0 0 0 0 0 0 0 0 
0 0 0 0 0 0 0 0 0 0 0 0 0 0 0 0 0 0 0 0 0 0 0 0 0 0 0 0 0 0 0 0 0 0 0 0 0 0 0 
0 0 0 0 0 0 0 0 0 0 0 0 0 0 0 0 0 0 0 0 0 0 0 0 0 0 0 0 0 0 45 65 61 45 65 61 
45 65 61 45 65 61 45 65 61 45 65 61 45 65 61 45 65 61 45 65 61 45 65 61 
45 65 61 45 65 61 68 97 70 68 97 70 68 97 70 68 97 70 68 97 70 68 97 70 
68 97 70 68 97 70 68 97 70 68 97 70 68 97 70 68 97 70 0 0 0 0 0 0 0 0 0 0 0 0 
0 0 0 0 0 0 0 0 0 0 0 0 0 0 0 0 0 0 0 0 0 0 0 0 0 0 0 0 0 0 0 0 0 0 0 0 0 0 0 
0 0 0 0 0 0 0 0 0 0 0 0 0 0 0 0 0 0 0 0 0 0 0 0 0 0 0 0 0 0 0 0 0 0 0 0 0 0 0 
0 0 0 0 0 0 0 0 0 0 0 0 0 0 0 0 0 0 0 0 0 0 0 0 0 0 0 0 0 0 45 65 61 45 65 61 
45 65 61 45 65 61 45 65 61 45 65 61 45 65 61 45 65 61 45 65 61 45 65 61 
45 65 61 45 65 61 68 97 70 68 97 70 68 97 70 68 97 70 68 97 70 68 97 70 
68 97 70 68 97 70 68 97 70 68 97 70 68 97 70 68 97 70 0 0 0 0 0 0 0 0 0 0 0 0 
0 0 0 0 0 0 0 0 0 0 0 0 0 0 0 0 0 0 0 0 0 0 0 0 0 0 0 0 0 0 0 0 0 0 0 0 0 0 0 
0 0 0 0 0 0 0 0 0 0 0 0 0 0 0 0 0 0 0 0 0 0 0 0 0 0 0 0 0 0 0 0 0 0 0 0 0 0 0 
0 0 0 0 0 0 0 0 0 0 0 0 0 0 0 0 0 0 0 0 0 0 0 0 0 0 0 0 0 0 45 65 61 45 65 61 
45 65 61 45 65 61 45 65 61 45 65 61 45 65 61 45 65 61 45 65 61 45 65 61 
45 65 61 45 65 61 68 97 70 68 97 70 68 97 70 68 97 70 68 97 70 68 97 70 
68 97 70 68 97 70 68 97 70 68 97 70 68 97 70 68 97 70 0 0 0 0 0 0 0 0 0 0 0 0 
0 0 0 0 0 0 0 0 0 0 0 0 0 0 0 0 0 0 0 0 0 0 0 0 0 0 0 0 0 0 0 0 0 0 0 0 0 0 0 
0 0 0 0 0 0 0 0 0 0 0 0 0 0 0 0 0 0 0 0 0 0 0 0 0 0 0 0 0 0 0 0 0 0 0 0 0 0 0 
0 0 0 0 0 0 0 0 0 0 0 0 0 0 0 0 0 0 0 0 0 0 0 0 0 0 0 0 0 0 45 65 61 45 65 61 
45 65 61 45 65 61 45 65 61 45 65 61 45 65 61 45 65 61 45 65 61 45 65 61 
45 65 61 45 65 61 68 97 70 68 97 70 68 97 70 68 97 70 68 97 70 68 97 70 
68 97 70 68 97 70 68 97 70 68 97 70 68 97 70 68 97 70 0 0 0 0 0 0 0 0 0 0 0 0 
0 0 0 0 0 0 0 0 0 0 0 0 0 0 0 0 0 0 0 0 0 0 0 0 0 0 0 0 0 0 0 0 0 0 0 0 0 0 0 
0 0 0 0 0 0 0 0 0 0 0 0 0 0 0 0 0 0 0 0 0 0 0 0 0 0 0 0 0 0 0 0 0 0 0 0 0 0 0 
0 0 0 0 0 0 0 0 0 0 0 0 0 0 0 0 0 0 0 0 0 0 0 0 0 0 0 0 0 0 45 65 61 45 65 61 
45 65 61 45 65 61 45 65 61 45 65 61 45 65 61 45 65 61 45 65 61 45 65 61 
45 65 61 45 65 61 68 97 70 68 97 70 68 97 70 68 97 70 68 97 70 68 97 70 
68 97 70 68 97 70 68 97 70 68 97 70 68 97 70 68 97 70 0 0 0 0 0 0 0 0 0 0 0 0 
0 0 0 0 0 0 0 0 0 0 0 0 0 0 0 0 0 0 0 0 0 0 0 0 0 0 0 0 0 0 0 0 0 0 0 0 0 0 0 
0 0 0 0 0 0 0 0 0 0 0 0 0 0 0 0 0 0 0 0 0 0 0 0 0 0 0 0 0 0 0 0 0 0 0 0 0 0 0 
0 0 0 0 0 0 0 0 0 0 0 0 0 0 0 0 0 0 0 0 0 0 0 0 0 0 0 0 0 0 45 65 61 45 65 61 
45 65 61 45 65 61 45 65 61 45 65 61 45 65 61 45 65 61 45 65 61 45 65 61 
45 65 61 45 65 61 68 97 70 68 97 70 68 97 70 68 97 70 68 97 70 68 97 70 
68 97 70 68 97 70 68 97 70 68 97 70 68 97 70 68 97 70 0 0 0 0 0 0 0 0 0 0 0 0 
0 0 0 0 0 0 0 0 0 0 0 0 0 0 0 0 0 0 0 0 0 0 0 0 0 0 0 0 0 0 0 0 0 0 0 0 0 0 0 
0 0 0 0 0 0 0 0 0 0 0 0 0 0 0 0 0 0 0 0 0 0 0 0 0 0 0 0 0 0 0 0 0 0 0 0 0 0 0 
0 0 0 0 0 0 0 0 0 0 0 0 0 0 0 0 0 0 0 0 0 0 0 0 0 0 0 0 0 0 45 65 61 45 65 61 
45 65 61 45 65 61 45 65 61 45 65 61 45 65 61 45 65 61 45 65 61 45 65 61 
45 65 61 45 65 61 68 97 70 68 97 70 68 97 70 68 97 70 68 97 70 68 97 70 
68 97 70 68 97 70 68 97 70 68 97 70 68 97 70 68 97 70 0 0 0 0 0 0 0 0 0 0 0 0 
0 0 0 0 0 0 0 0 0 0 0 0 0 0 0 0 0 0 0 0 0 0 0 0 0 0 0 0 0 0 0 0 0 0 0 0 0 0 0 
0 0 0 0 0 0 0 0 0 0 0 0 0 0 0 0 0 0 0 0 0 0 0 0 0 0 0 0 0 0 0 0 0 0 0 0 0 0 0 
0 0 0 0 0 0 0 0 0 0 0 0 0 0 0 0 0 0 0 0 0 0 0 0 0 0 0 0 0 0 45 65 61 45 65 61 
45 65 61 45 65 61 45 65 61 45 65 61 45 65 61 45 65 61 45 65 61 45 65 61 
45 65 61 45 65 61 68 97 70 68 97 70 68 97 70 68 97 70 68 97 70 68 97 70 
68 97 70 68 97 70 68 97 70 68 97 70 68 97 70 68 97 70 0 0 0 0 0 0 0 0 0 0 0 0 
0 0 0 0 0 0 0 0 0 0 0 0 0 0 0 0 0 0 0 0 0 0 0 0 0 0 0 0 0 0 0 0 0 0 0 0 0 0 0 
0 0 0 0 0 0 0 0 0 0 0 0 0 0 0 0 0 0 0 0 0 0 0 0 0 0 0 0 0 0 0 0 0 0 0 0 0 0 0 
0 0 0 0 0 0 0 0 0 0 0 0 0 0 0 0 0 0 0 0 0 0 0 0 0 0 0 0 0 0 45 65 61 45 65 61 
45 65 61 45 65 61 45 65 61 45 65 61 45 65 61 45 65 61 45 65 61 45 65 61 
45 65 61 45 65 61 68 97 70 68 97 70 68 97 70 68 97 70 68 97 70 68 97 70 
68 97 70 68 97 70 68 97 70 68 97 70 68 97 70 68 97 70 0 0 0 0 0 0 0 0 0 0 0 0 
0 0 0 0 0 0 0 0 0 0 0 0 0 0 0 0 0 0 0 0 0 0 0 0 0 0 0 0 0 0 0 0 0 0 0 0 0 0 0 
0 0 0 0 0 0 0 0 0 0 0 0 0 0 0 0 0 0 0 0 0 0 0 0 0 0 0 0 0 0 0 0 0 0 0 0 0 0 0 
0 0 0 0 0 0 0 0 0 0 0 0 0 0 0 0 0 0 0 0 0 0 0 0 0 0 0 0 0 0 45 65 61 45 65 61 
45 65 61 45 65 61 45 65 61 45 65 61 45 65 61 45 65 61 45 65 61 45 65 61 
45 65 61 45 65 61 68 97 70 68 97 70 68 97 70 68 97 70 68 97 70 68 97 70 
68 97 70 68 97 70 68 97 70 68 97 70 68 97 70 68 97 70 0 0 0 0 0 0 0 0 0 0 0 0 
0 0 0 0 0 0 0 0 0 0 0 0 0 0 0 0 0 0 0 0 0 0 0 0 0 0 0 0 0 0 0 0 0 0 0 0 0 0 0 
0 0 0 0 0 0 0 0 0 0 0 0 0 0 0 0 0 0 0 0 0 0 0 0 0 0 0 0 0 0 0 0 0 0 0 0 0 0 0 
0 0 0 0 0 0 0 0 0 0 0 0 0 0 0 0 0 0 0 0 0 0 0 0 0 0 0 0 0 0 45 65 61 45 65 61 
45 65 61 45 65 61 45 65 61 45 65 61 45 65 61 45 65 61 45 65 61 45 65 61 
45 65 61 45 65 61 68 97 70 68 97 70 68 97 70 68 97 70 68 97 70 68 97 70 
68 97 70 68 97 70 68 97 70 68 97 70 68 97 70 68 97 70 0 0 0 0 0 0 0 0 0 0 0 0 
0 0 0 0 0 0 0 0 0 0 0 0 0 0 0 0 0 0 0 0 0 0 0 0 0 0 0 0 0 0 0 0 0 0 0 0 0 0 0 
0 0 0 0 0 0 0 0 0 0 0 0 0 0 0 0 0 0 0 0 0 0 0 0 0 0 0 0 0 0 0 0 0 0 0 0 0 0 0 
0 0 0 0 0 0 0 0 0 0 0 0 0 0 0 0 0 0 0 0 0 0 0 0 0 0 0 0 0 0 0 0 0 0 0 0 0 0 0 
0 0 0 0 0 0 0 0 0 0 0 0 0 0 0 0 0 0 0 0 0 0 0 0 0 0 0 0 0 0 0 0 0 0 0 0 0 0 0 
0 0 0 0 0 0 0 0 0 0 0 0 0 0 0 0 0 0 0 0 0 0 0 0 0 0 0 0 0 0 0 0 0 0 0 0 0 0 0 
0 0 0 0 0 0 0 0 0 0 0 0 0 0 0 0 0 0 0 0 0 0 0 0 0 0 0 0 0 0 0 0 0 0 0 0 0 0 0 
0 0 0 0 0 0 0 0 0 0 0 0 0 0 0 0 0 0 0 0 0 0 0 0 0 0 0 0 0 0 0 0 0 0 0 0 0 0 0 
0 0 0 0 0 0 0 0 0 0 0 0 0 0 0 0 0 0 0 0 0 0 0 0 0 0 0 0 0 0 0 0 0 0 0 0 0 0 0 
0 0 0 0 0 0 0 0 0 0 0 0 0 0 0 0 0 0 0 0 0 0 0 0 0 0 0 0 0 0 0 0 0 0 0 0 0 0 0 
0 0 0 0 0 0 0 0 0 0 0 0 0 0 0 0 0 0 0 0 0 0 0 0 0 0 0 0 0 0 0 0 0 0 0 0 0 0 0 
0 0 0 0 0 0 0 0 0 0 0 0 0 0 0 0 0 0 0 0 0 0 0 0 0 0 0 0 0 0 0 0 0 0 0 0 0 0 0 
0 0 0 0 0 0 0 0 0 0 0 0 0 0 0 0 0 0 0 0 0 0 0 0 0 0 0 0 0 0 0 0 0 0 0 0 0 0 0 
0 0 0 0 0 0 0 0 0 0 0 0 0 0 0 0 0 0 0 0 0 0 0 0 0 0 0 0 0 0 0 0 0 0 0 0 0 0 0 
0 0 0 0 0 0 0 0 0 0 0 0 0 0 0 0 0 0 0 0 0 0 0 0 0 0 0 0 0 0 0 0 0 0 0 0 0 0 0 
0 0 0 0 0 0 0 0 0 0 0 0 0 0 0 0 0 0 0 0 0 0 0 0 0 0 0 0 0 0 0 0 0 0 0 0 0 0 0 
0 0 0 0 0 0 0 0 0 0 0 0 0 0 0 0 0 0 0 0 0 0 0 0 0 0 0 0 0 0 0 0 0 0 0 0 0 0 0 
0 0 0 0 0 0 0 0 0 0 0 0 0 0 0 0 0 0 0 0 0 0 0 0 0 0 0 0 0 0 0 0 0 0 0 0 0 0 0 
0 0 0 0 0 0 0 0 0 0 0 0 0 0 0 0 0 0 0 0 0 0 0 0 0 0 0 0 0 0 0 0 0 0 0 0 0 0 0 
0 0 0 0 0 0 0 0 0 0 0 0 0 0 0 0 0 0 0 0 0 0 0 0 0 0 0 0 0 0 0 0 0 0 0 0 0 0 0 
0 0 0 0 0 0 0 0 0 0 0 0 0 0 0 0 0 0 0 0 0 0 0 0 0 0 0 0 0 0 0 0 0 0 0 0 0 0 0 
0 0 0 0 0 0 0 0 0 0 0 0 0 0 0 0 0 0 0 0 0 0 0 0 0 0 0 0 0 0 0 0 0 0 0 0 0 0 0 
0 0 0 0 0 0 0 0 0 0 0 0 0 0 0 0 0 0 0 0 0 0 0 0 0 0 0 0 0 0 0 0 0 0 0 0 0 0 0 
0 0 0 0 0 0 0 0 0 0 0 0 0 0 0 0 0 0 0 0 0 0 0 0 0 0 0 0 0 0 0 0 0 0 0 0 0 0 0 
0 0 0 0 0 0 0 0 0 0 0 0 0 0 0 0 0 0 0 0 0 0 0 0 0 0 0 0 0 0 0 0 0 0 0 0 0 0 0 
0 0 0 0 0 0 0 0 0 0 0 0 0 0 0 0 0 0 0 0 0 0 0 0 0 0 0 0 0 0 0 0 0 0 0 0 0 0 0 
0 0 0 0 0 0 0 0 0 0 0 0 0 0 0 0 0 0 0 0 0 0 0 0 0 0 0 0 0 0 0 0 0 0 0 0 0 0 0 
0 0 0 0 0 0 0 0 0 0 0 0 0 0 0 0 0 0 0 0 0 0 0 0 0 0 0 0 0 0 0 0 0 0 0 0 0 0 0 
0 0 0 0 0 0 0 0 0 0 0 0 0 0 0 0 0 0 0 0 0 0 0 0 0 0 0 0 0 0 0 0 0 0 0 0 0 0 0 
0 0 0 0 0 0 0 0 0 0 0 0 0 0 0 0 0 0 0 0 0 0 0 0 0 0 0 0 0 0 0 0 0 0 0 0 0 0 0 
0 0 0 0 0 0 0 0 0 0 0 0 0 0 0 0 0 0 0 0 0 0 0 0 0 0 0 0 0 0 0 0 0 0 0 0 0 0 0 
0 0 0 0 0 0 0 0 0 0 0 0 0 0 0 0 0 0 0 0 0 0 0 0 0 0 0 0 0 0 0 0 0 0 0 0 0 0 0 
0 0 0 0 0 0 0 0 0 0 0 0 0 0 0 0 0 0 0 0 0 0 0 0 0 0 0 0 0 0 0 0 0 0 0 0 0 0 0 
0 0 0 0 0 0 0 0 0 0 0 0 0 0 0 0 0 0 0 0 0 0 0 0 0 0 0 0 0 0 0 0 0 0 0 0 0 0 0 
0 0 0 0 0 0 0 0 0 0 0 0 0 0 0 0 0 0 0 0 0 0 0 0 0 0 0 0 0 0 0 0 0 0 0 0 0 0 0 
0 0 0 0 0 0 0 0 0 0 0 0 0 0 0 0 0 0 0 0 0 0 0 0 0 0 0 0 0 0 0 0 0 0 0 0 0 0 0 
0 0 0 0 0 0 0 0 0 0 0 0 0 0 0 0 0 0 0 0 0 0 0 0 0 0 0 0 0 0 0 0 0 0 0 0 0 0 0 
0 0 0 0 0 0 0 0 0 0 0 0 0 0 0 0 0 0 0 0 0 0 0 0 0 0 0 0 0 0 0 0 0 0 0 0 0 0 0 
0 0 0 0 0 0 0 0 0 0 0 0 0 0 0 0 0 0 0 0 0 0 0 0 0 0 0 0 0 0 0 0 0 0 0 0 0 0 0 
0 0 0 0 0 0 0 0 0 0 0 0 0 0 0 0 0 0 0 0 0 0 0 0 0 0 0 0 0 0 0 0 0 0 0 0 0 0 0 
0 0 0 0 0 0 0 0 0 0 0 0 0 0 0 0 0 0 0 0 0 0 0 0 0 0 0 0 0 0 0 0 0 0 0 0 0 0 0 
0 0 0 0 0 0 0 0 0 0 0 0 0 0 0 0 0 0 0 0 0 0 0 0 0 0 0 0 0 0 0 0 0 0 0 0 0 0 0 
0 0 0 0 0 0 0 0 0 0 0 0 0 0 0 0 0 0 0 0 0 0 0 0 0 0 0 0 0 0 0 0 0 0 0 0 0 0 0 
0 0 0 0 0 0 0 0 0 0 0 0 0 0 0 0 0 0 0 0 0 0 0 0 0 0 0 0 0 0 0 0 0 0 0 0 0 0 0 
0 0 0 0 0 0 0 0 0 0 0 0 0 0 0 0 0 0 0 0 0 0 0 0 0 0 0 0 0 0 0 0 0 0 0 0 0 0 0 
0 0 0 0 0 0 0 0 0 0 0 0 0 0 0 0 0 0 0 0 0 0 0 0 0 0 0 0 0 0 0 0 0 0 0 0 0 0 0 
0 0 0 0 0 0 0 0 0 0 0 0 0 0 0 0 0 0 0 0 0 0 0 0 0 0 0 0 0 0 0 0 0 0 0 0 0 0 0 
0 0 0 0 0 0 0 0 0 0 0 0 0 0 0 0 0 0 0 0 0 0 0 0 0 0 0 0 0 0 0 0 0 0 0 0 0 0 0 
0 0 0 0 0 0 0 0 0 0 0 0 0 0 0 0 0 0 0 0 0 0 0 0 0 0 0 0 0 0 0 0 0 0 0 0 0 0 0 
0 0 0 0 0 0 0 0 0 0 0 0 0 0 0 0 0 0 0 0 0 0 0 0 0 0 0 0 0 0 0 0 0 0 0 0 0 0 0 
0 0 0 0 0 0 0 0 0 0 0 0 0 0 0 0 0 0 0 0 0 0 0 0 0 0 0 0 0 0 0 0 0 0 0 0 0 0 0 
0 0 0 0 0 0 0 0 0 0 0 0 0 0 0 0 0 0 0 0 0 0 0 0 0 0 0 0 0 0 0 0 0 0 0 0 0 0 0 
0 0 0 0 0 0 0 0 0 0 0 0 0 0 0 0 0 0 0 0 0 0 0 0 0 0 0 0 0 0 0 0 0 0 0 0 0 0 0 
0 0 0 0 0 0 0 0 0 0 0 0 0 0 0 0 0 0 0 0 0 0 0 0 0 0 0 0 0 0 0 0 0 0 0 0 0 0 0 
0 0 0 0 0 0 0 0 0 0 0 0 0 0 0 0 0 0 0 0 0 0 0 0 0 0 0 0 0 0 0 0 0 0 0 0 0 0 0 
0 0 0 0 0 0 0 0 0 0 0 0 0 0 0 0 0 0 0 0 0 0 0 0 0 0 0 0 0 0 0 0 0 0 0 0 0 0 0 
0 0 0 0 0 0 0 0 0 0 0 0 0 0 0 0 0 0 0 0 0 0 0 0 0 0 0 0 0 0 0 0 0 0 0 0 0 0 0 
0 0 0 0 0 0 0 0 0 0 0 0 0 0 0 0 0 0 0 0 0 0 0 0 0 0 0 0 0 0 0 0 0 0 0 0 0 0 0 
0 0 0 0 0 0 0 0 0 0 0 0 0 0 0 0 0 0 0 0 0 0 0 0 0 0 0 0 0 0 0 0 0 0 0 0 0 0 0 
0 0 0 0 0 0 0 0 0 0 0 0 0 0 0 0 0 0 0 0 0 0 0 0 0 0 0 0 0 0 0 0 0 0 0 0 0 0 0 
0 0 0 0 0 0 0 0 0 0 0 0 0 0 0 0 0 0 0 0 0 0 0 0 0 0 0 0 0 0 0 0 0 0 0 0 0 0 0 
0 0 0 0 0 0 0 0 0 0 0 0 0 0 0 0 0 0 0 0 0 0 0 0 0 0 0 0 0 0 0 0 0 0 0 0 0 0 0 
0 0 0 0 0 0 0 0 0 0 0 0 0 0 0 0 0 0 0 0 0 0 0 0 0 0 0 0 0 0 0 0 0 0 0 0 0 0 0 
0 0 0 0 0 0 0 0 0 0 0 0 0 0 0 0 0 0 0 0 0 0 0 0 0 0 0 0 0 0 0 0 0 0 0 0 0 0 0 
0 0 0 0 0 0 0 0 0 0 0 0 0 0 0 0 0 0 0 0 0 0 0 0 0 0 0 0 0 0 0 0 0 0 0 0 0 0 0 
0 0 0 0 0 0 0 0 0 0 0 0 0 0 0 0 0 0 0 0 0 0 0 0 0 0 0 0 0 0 0 0 0 0 0 0 0 0 0 
0 0 0 0 0 0 0 0 0 0 0 0 0 0 0 0 0 0 0 0 0 0 0 0 0 0 0 0 0 0 0 0 0 0 0 0 0 0 0 
0 0 0 0 0 0 0 0 0 0 0 0 0 0 0 0 0 0 0 0 0 0 0 0 0 0 0 0 0 0 0 0 0 0 0 0 0 0 0 
0 0 0 0 0 0 0 0 0 0 0 0 0 0 0 0 0 0 0 0 0 0 0 0 0 0 0 0 0 0 0 0 0 0 0 0 0 0 0 
0 0 0 0 0 0 0 0 0 0 0 0 0 0 0 0 0 0 0 0 0 0 0 0 0 0 0 0 0 0 0 0 0 0 0 0 0 0 0 
0 0 0 0 0 0 0 0 0 0 0 0 0 0 0 0 0 0 0 0 0 0 0 0 0 0 0 0 0 0 0 0 0 0 0 0 0 0 0 
0 0 0 0 0 0 0 0 0 0 0 0 0 0 0 0 0 0 0 0 0 0 0 0 0 0 0 0 0 0 0 0 0 0 0 0 0 0 0 
0 0 0 0 0 0 0 0 0 0 0 0 0 0 0 0 0 0 0 0 0 0 0 0 0 0 0 0 0 0 0 0 0 0 0 0 0 0 0 
0 0 0 0 0 0 0 0 0 0 0 0 0 0 0 0 0 0 0 0 0 0 0 0 0 0 0 0 0 0 0 0 0 0 0 0 0 0 0 
0 0 0 0 0 0 0 0 0 0 0 0 0 0 0 0 0 0 0 0 0 0 0 0 0 0 0 0 0 0 0 0 0 0 0 0 0 0 0 
0 0 0 0 0 0 0 0 0 0 0 0 0 0 0 0 0 0 0 0 0 0 0 0 0 0 0 0 0 0 0 0 0 0 0 0 0 0 0 
0 0 0 0 0 0 0 0 0 0 0 0 0 0 0 0 0 0 0 0 0 0 0 0 0 0 0 0 0 0 0 0 0 0 0 0 0 0 0 
0 0 0 0 0 0 0 0 0 0 0 0 0 0 0 0 0 0 0 0 0 0 0 0 0 0 0 0 0 0 0 0 0 0 0 0 0 0 0 
0 0 0 0 0 0 0 0 0 0 0 0 0 0 0 0 0 0 0 0 0 0 0 0 0 0 0 0 0 0 0 0 0 0 0 0 0 0 0 
0 0 0 0 0 0 0 0 0 0 0 0 0 0 0 0 0 0 0 0 0 0 0 0 0 0 0 0 0 0 0 0 0 0 0 0 0 0 0 
0 0 0 0 0 0 0 0 0 0 0 0 0 0 0 0 0 0 0 0 0 0 0 0 0 0 0 0 0 0 0 0 0 0 0 0 0 0 0 
0 0 0 0 0 0 0 0 0 0 0 0 0 0 0 0 0 0 0 0 0 0 0 0 0 0 0 0 0 0 0 0 0 0 0 0 0 0 0 
0 0 0 0 0 0 0 0 0 0 0 0 0 0 0 0 0 0 0 0 0 0 0 0 0 0 0 0 0 0 0 0 0 0 0 0 0 0 0 
0 0 0 0 0 0 0 0 0 0 0 0 0 0 0 0 0 0 0 0 0 0 0 0 0 0 0 0 0 0 0 0 0 0 0 0 0 0 0 
0 0 0 0 0 0 0 0 0 0 0 0 0 0 0 0 0 0 0 0 0 0 0 0 0 0 0 0 0 0 0 0 0 0 0 0 0 0 0 
0 0 0 0 0 0 0 0 0 0 0 0 0 0 0 0 0 0 0 0 0 0 0 0 0 0 0 0 0 0 0 0 0 0 0 0 0 0 0 
0 0 0 0 0 0 0 0 0 0 0 0 0 0 0 0 0 0 0 0 0 0 0 0 0 0 0 0 0 0 0 0 0 0 0 0 0 0 0 
0 0 0 0 0 0 0 0 0 0 0 0 0 0 0 0 0 0 0 0 0 0 0 0 0 0 0 0 0 0 0 0 0 0 0 0 0 0 0 
0 0 0 0 0 0 0 0 0 0 0 0 0 0 0 0 0 0 0 0 0 0 0 0 0 0 0 0 0 0 0 0 0 0 0 0 0 0 0 
0 0 0 0 0 0 0 0 0 0 0 0 0 0 0 0 0 0 0 0 0 0 0 0 0 0 0 0 0 0 0 0 0 0 0 0 0 0 0 
0 0 0 0 0 0 0 0 0 0 0 0 0 0 0 0 0 0 0 0 0 0 0 0 0 0 0 0 0 0 0 0 0 0 0 0 0 0 0 
0 0 0 0 0 0 0 0 0 0 0 0 0 0 0 0 0 0 0 0 0 0 0 0 0 0 0 0 0 0 0 0 0 0 0 0 0 0 0 
0 0 0 0 0 0 0 0 0 0 0 0 0 0 0 0 0 0 0 0 0 0 0 0 0 0 0 0 0 0 0 0 0 0 0 0 0 0 0 
0 0 0 0 0 0 0 0 0 0 0 0 0 0 0 0 0 0 0 0 0 0 0 0 0 0 0 0 0 0 0 0 0 0 0 0 0 0 0 
0 0 0 0 0 0 0 0 0 0 0 0 0 0 0 0 0 0 0 0 0 0 0 0 0 0 0 0 0 0 0 0 0 0 0 0 0 0 0 
0 0 0 0 0 0 0 0 0 0 0 0 0 0 0 0 0 0 0 0 0 0 0 0 0 0 0 0 0 0 0 0 0 0 0 0 0 0 0 
0 0 0 0 0 0 0 0 0 0 0 0 0 0 0 0 0 0 0 0 0 0 0 0 0 0 0 0 0 0 0 0 0 0 0 0 0 0 0 
0 0 0 0 0 0 0 0 0 0 0 0 0 0 0 0 0 0 0 0 0 0 0 0 0 0 0 0 0 0 0 0 0 0 0 0 0 0 0 
0 0 0 0 0 0 0 0 0 0 0 0 0 0 0 0 0 0 0 0 0 0 0 0 0 0 0 0 0 0 0 0 0 0 0 0 0 0 0 
0 0 0 0 0 0 0 0 0 0 0 0 0 0 0 0 0 0 0 0 0 0 0 0 0 0 0 0 0 0 0 0 0 0 0 0 0 0 0 
0 0 0 0 0 0 0 0 0 0 0 0 0 0 0 0 0 0 0 0 0 0 0 0 0 0 0 0 0 0 0 0 0 0 0 0 0 0 0 
0 0 0 0 0 0 0 0 0 0 0 0 0 0 0 0 0 0 0 0 0 0 0 0 0 0 0 0 0 0 0 0 0 0 0 0 0 0 0 
0 0 0 0 0 0 0 0 0 0 0 0 0 0 0 0 0 0 0 0 0 0 0 0 0 0 0 0 0 0 0 0 0 0 0 0 0 0 0 
0 0 0 0 0 0 0 0 0 0 0 0 0 0 0 0 0 0 0 0 0 0 0 0 0 0 0 0 0 0 0 0 0 0 0 0 0 0 0 
0 0 0 0 0 0 0 0 0 0 0 0 0 0 0 0 0 0 0 0 0 0 0 0 0 0 0 0 0 0 0 0 0 0 0 0 0 0 0 
0 0 0 0 0 0 0 0 0 0 0 0 0 0 0 0 0 0 0 0 0 0 0 0 0 0 0 0 0 0 0 0 0 0 0 0 0 0 0 
0 0 0 0 0 0 0 0 0 0 0 0 0 0 0 0 0 0 0 0 0 0 0 0 0 0 0 0 0 0 0 0 0 0 0 0 0 0 0 
0 0 0 0 0 0 0 0 0 0 0 0 0 0 0 0 0 0 0 0 0 0 0 0 0 0 0 0 0 0 0 0 0 0 0 0 0 0 0 
0 0 0 0 0 0 0 0 0 0 0 0 0 0 0 0 0 0 0 0 0 0 0 0 0 0 0 0 0 0 0 0 0 0 0 0 0 0 0 
0 0 0 0 0 0 0 0 0 0 0 0 0 0 0 0 0 0 0 0 0 0 0 0 0 0 0 0 0 0 0 0 0 0 0 0 0 0 0 
0 0 0 0 0 0 0 0 0 0 0 0 0 0 0 0 0 0 0 0 0 0 0 0 0 0 0 0 0 0 0 0 0 0 0 0 0 0 0 
0 0 0 0 0 0 0 0 0 0 0 0 0 0 0 0 0 0 0 0 0 0 0 0 0 0 0 0 0 0 0 0 0 0 0 0 0 0 0 
0 0 0 0 0 0 0 0 0 0 0 0 0 0 0 0 0 0 0 0 0 0 0 0 0 0 0 0 0 0 0 0 0 0 0 0 0 0 0 
0 0 0 0 0 0 0 0 0 0 0 0 0 0 0 0 0 0 0 0 0 0 0 0 0 0 0 0 0 0 0 0 0 0 0 0 0 0 0 
0 0 0 0 0 0 0 0 0 0 0 0 0 0 0 0 0 0 0 0 0 0 0 0 0 0 0 0 0 0 0 0 0 0 0 0 0 0 0 
0 0 0 0 0 0 0 0 0 0 0 0 0 0 0 0 0 0 0 0 0 0 0 0 0 0 0 0 0 0 0 0 0 0 0 0 0 0 0 
0 0 0 0 0 0 0 0 0 0 0 0 0 0 0 0 0 0 0 0 0 0 0 0 0 0 0 0 0 0 0 0 0 0 0 0 0 0 0 
0 0 0 0 0 0 0 0 0 0 0 0 0 0 0 0 0 0 0 0 0 0 0 0 0 0 0 0 0 0 0 0 0 0 0 0 0 0 0 
0 0 0 0 0 0 0 0 0 0 0 0 0 0 0 0 0 0 0 0 0 0 0 0 0 0 0 0 0 0 0 0 0 0 0 0 0 0 0 
0 0 0 0 0 0 0 0 0 0 0 0 0 0 0 0 0 0 0 0 0 0 0 0 0 0 0 0 0 0 0 0 0 0 0 0 0 0 0 
0 0 0 0 0 0 0 0 0 0 0 0 0 0 0 0 0 0 0 0 0 0 0 0 0 0 0 0 0 0 0 0 0 0 0 0 0 0 0 
0 0 0 0 0 0 0 0 0 0 0 0 0 0 0 0 0 0 0 0 0 0 0 0 0 0 0 0 0 0 0 0 0 0 0 0 0 0 0 
0 0 0 0 0 0 0 0 0 0 0 0 0 0 0 0 0 0 0 0 0 0 0 0 0 0 0 0 0 0 0 0 0 0 0 0 0 0 0 
0 0 0 0 0 0 0 0 0 0 0 0 0 0 0 0 0 0 0 0 0 0 0 0 0 0 0 0 0 0 0 0 0 0 0 0 0 0 0 
0 0 0 0 0 0 0 0 0 0 0 0 0 0 0 0 0 0 0 0 0 0 0 0 0 0 0 0 0 0 0 0 0 0 0 0 0 0 0 
0 0 0 0 0 0 0 0 0 0 0 0 0 0 0 0 0 0 0 0 0 0 0 0 0 0 0 0 0 0 0 0 0 0 0 0 0 0 0 
0 0 0 0 0 0 0 0 0 0 0 0 0 0 0 0 0 0 0 0 0 0 0 0 0 0 0 0 0 0 0 0 0 0 0 0 0 0 0 
0 0 0 0 0 0 0 0 0 0 0 0 0 0 0 0 0 0 0 0 0 0 0 0 0 0 0 0 0 0 0 0 0 0 0 0 0 0 0 
0 0 0 0 0 0 0 0 0 0 0 0 0 0 0 0 0 0 0 0 0 0 0 0 0 0 0 0 0 0 0 0 0 0 0 0 0 0 0 
0 0 0 0 0 0 0 0 0 0 0 0 0 0 0 0 0 0 0 0 0 0 0 0 0 0 0 0 0 0 0 0 0 0 0 0 0 0 0 
0 0 0 0 0 0 0 0 0 0 0 0 0 0 0 0 0 0 0 0 0 0 0 0 0 0 0 0 0 0 0 0 0 0 0 0 0 0 0 
0 0 0 0 0 0 0 0 0 0 0 0 0 0 0 0 0 0 0 0 0 0 0 0 0 0 0 0 0 0 0 0 0 0 0 0 0 0 0 
0 0 0 0 0 0 0 0 0 0 0 0 0 0 0 0 0 0 0 0 0 0 0 0 0 0 0 0 0 0 0 0 0 0 0 0 0 0 0 
0 0 0 0 0 0 0 0 0 0 0 0 0 0 0 0 0 0 0 0 0 0 0 0 0 0 0 0 0 0 0 0 0 0 0 0 0 0 0 
0 0 0 0 0 0 0 0 0 0 0 0 0 0 0 0 0 0 0 0 0 0 0 0 0 0 0 0 0 0 0 0 0 0 0 0 0 0 0 
0 0 0 0 0 0 0 0 0 0 0 0 0 0 0 0 0 0 0 0 0 0 0 0 0 0 0 0 0 0 0 0 0 0 0 0 0 0 0 
0 0 0 0 0 0 0 0 0 0 0 0 0 0 0 0 0 0 0 0 0 0 0 0 0 0 0 0 0 0 0 0 0 0 0 0 0 0 0 
0 0 0 0 0 0 0 0 0 0 0 0 0 0 0 0 0 0 0 0 0 0 0 0 0 0 0 0 0 0 0 0 0 0 0 0 0 0 0 
0 0 0 0 0 0 0 0 0 0 0 0 0 0 0 0 0 0 0 0 0 0 0 0 0 0 0 0 0 0 0 0 0 0 0 0 0 0 0 
0 0 0 0 0 0 0 0 0 0 0 0 0 0 0 0 0 0 0 0 0 0 0 0 0 0 0 0 0 0 0 0 0 0 0 0 0 0 0 
0 0 0 0 0 0 0 0 0 0 0 0 0 0 0 0 0 0 0 0 0 0 0 0 0 0 0 0 0 0 0 0 0 0 0 0 0 0 0 
0 0 0 0 0 0 0 0 0 0 0 0 0 0 0 0 0 0 0 0 0 0 0 0 
